<svg width="178" height="61" viewBox="0 0 178 61" fill="none" xmlns="http://www.w3.org/2000/svg">
<path d="M57.088 37V25.704H58.88L63.328 32.632H62.416L66.848 25.704H68.656V37H66.144V29.944L66.592 30.056L63.696 34.568H62.032L59.152 30.056L59.584 29.944V37H57.088ZM71.6224 37V25.704H74.1344V37H71.6224ZM73.5424 37V34.824H79.7344V37H73.5424ZM73.5424 32.28V30.184H79.1744V32.28H73.5424ZM73.5424 27.864V25.704H79.6544V27.864H73.5424ZM83.9621 37V34.792H86.7621C87.4448 34.792 88.0421 34.6587 88.5541 34.392C89.0661 34.1147 89.4608 33.7147 89.7381 33.192C90.0155 32.6693 90.1541 32.0507 90.1541 31.336C90.1541 30.6213 90.0101 30.008 89.7221 29.496C89.4448 28.984 89.0501 28.5893 88.5381 28.312C88.0368 28.0347 87.4448 27.896 86.7621 27.896H83.8821V25.704H86.7941C87.6475 25.704 88.4315 25.8427 89.1461 26.12C89.8715 26.3867 90.5008 26.776 91.0341 27.288C91.5781 27.7893 91.9941 28.3867 92.2821 29.08C92.5808 29.7627 92.7301 30.52 92.7301 31.352C92.7301 32.1733 92.5808 32.9307 92.2821 33.624C91.9941 34.3173 91.5835 34.9147 91.0501 35.416C90.5168 35.9173 89.8875 36.3067 89.1621 36.584C88.4475 36.8613 87.6688 37 86.8261 37H83.9621ZM82.2661 37V25.704H84.7781V37H82.2661ZM95.1286 37V25.704H97.6406V37H95.1286ZM105.976 37.176C105.133 37.176 104.349 37.032 103.624 36.744C102.909 36.4453 102.28 36.0293 101.736 35.496C101.203 34.9627 100.787 34.344 100.488 33.64C100.189 32.9253 100.04 32.1573 100.04 31.336C100.04 30.5147 100.189 29.752 100.488 29.048C100.787 28.3333 101.203 27.7147 101.736 27.192C102.269 26.6693 102.893 26.264 103.608 25.976C104.333 25.6773 105.117 25.528 105.96 25.528C106.856 25.528 107.651 25.672 108.344 25.96C109.048 26.248 109.661 26.6427 110.184 27.144L108.504 28.84C108.205 28.52 107.843 28.2693 107.416 28.088C107 27.9067 106.515 27.816 105.96 27.816C105.469 27.816 105.016 27.9013 104.6 28.072C104.195 28.232 103.843 28.4667 103.544 28.776C103.256 29.0853 103.027 29.4587 102.856 29.896C102.696 30.3333 102.616 30.8133 102.616 31.336C102.616 31.8693 102.696 32.3547 102.856 32.792C103.027 33.2293 103.256 33.6027 103.544 33.912C103.843 34.2213 104.195 34.4613 104.6 34.632C105.016 34.8027 105.469 34.888 105.96 34.888C106.536 34.888 107.037 34.7973 107.464 34.616C107.891 34.4347 108.259 34.184 108.568 33.864L110.264 35.56C109.72 36.0613 109.096 36.456 108.392 36.744C107.699 37.032 106.893 37.176 105.976 37.176ZM112.447 37V25.704H114.959V37H112.447ZM114.367 37V34.824H120.559V37H114.367ZM114.367 32.28V30.184H119.999V32.28H114.367ZM114.367 27.864V25.704H120.479V27.864H114.367ZM123.091 37V25.704H124.851L125.603 27.96V37H123.091ZM130.883 37L124.227 28.472L124.851 25.704L131.507 34.232L130.883 37ZM130.883 37L130.211 34.744V25.704H132.723V37H130.883ZM138.472 37V25.864H140.984V37H138.472ZM134.936 27.896V25.704H144.52V27.896H134.936ZM148.642 32.344V30.488H151.026C151.528 30.488 151.912 30.36 152.178 30.104C152.456 29.848 152.594 29.5013 152.594 29.064C152.594 28.6587 152.461 28.3227 152.194 28.056C151.928 27.7893 151.544 27.656 151.042 27.656H148.642V25.704H151.33C152.077 25.704 152.733 25.848 153.298 26.136C153.864 26.4133 154.306 26.8027 154.626 27.304C154.946 27.8053 155.106 28.3813 155.106 29.032C155.106 29.6933 154.946 30.2747 154.626 30.776C154.306 31.2667 153.858 31.6507 153.282 31.928C152.706 32.2053 152.029 32.344 151.25 32.344H148.642ZM146.722 37V25.704H149.234V37H146.722ZM152.866 37L149.346 32.136L151.65 31.512L155.842 37H152.866ZM156.534 37L161.014 25.704H163.286L167.718 37H165.062L161.67 27.624H162.582L159.142 37H156.534ZM159.078 34.952V32.904H165.238V34.952H159.078ZM169.713 37V25.704H172.225V37H169.713ZM171.649 37V34.792H177.233V37H171.649Z" fill="#106A51"/>
<g clip-path="url(#clip0_154_324)">
<path d="M21.6875 0.204982C32.8142 -0.542597 42.2912 8.10279 42.9294 19.1718C43.2545 24.8992 38.6906 32.6885 35.632 37.4151C31.9953 43.0461 27.7927 48.2912 23.6503 53.5483C23.2891 53.9583 22.711 53.9583 22.3498 53.5483C18.7974 49.0749 15.233 44.5774 12.0178 39.8508C8.33303 34.4368 2.68539 25.6829 3.07073 18.9788C3.64874 9.00712 11.7529 0.880214 21.6875 0.204982Z" fill="#106A51" stroke="#106A51" stroke-width="0.27" stroke-miterlimit="10"/>
<path d="M43.4953 49.6175C45.711 51.2935 46.2408 53.6086 44.0733 55.6464C40.5691 58.9261 31.5016 60.0595 26.8173 60.3609C20.3869 60.7588 8.34503 60.0595 2.9021 56.3939C0.373301 54.6938 -0.457589 52.1617 2.09529 49.9672C4.28691 48.0741 10.5126 46.386 13.3906 46.1087C14.3298 46.0243 14.7031 46.9407 13.8963 47.423C10.8016 48.0982 5.19005 48.882 2.84189 51.1609C0.0722539 53.8498 4.61204 55.9358 6.71937 56.7074C12.2707 58.7452 19.5801 59.2034 25.4806 59.0225C30.1529 58.8778 39.0639 57.8409 42.7728 54.8867C44.3623 53.6207 44.555 52.4149 42.9534 51.0283C41.0026 49.3281 37.4623 48.3514 34.9576 47.8209C34.1387 47.6521 32.477 47.5315 31.8387 47.2663C31.1042 46.9528 31.2848 45.9037 32.1157 45.9037C32.3445 45.9037 32.7419 45.9881 32.9827 46.0243C36.1618 46.5066 40.9304 47.6762 43.5073 49.6296L43.4953 49.6175Z" fill="#106A51" stroke="#106A51" stroke-width="0.91" stroke-miterlimit="10"/>
<path d="M36.9444 16.5311H27.6842V7.25875H18.3156V16.5311H9.05542V25.9241H18.3156V35.1965H27.6842V25.9241H36.9444V16.5311Z" fill="#D6F1C4" stroke="#106A51" stroke-width="1.09" stroke-miterlimit="10"/>
</g>
<defs>
<clipPath id="clip0_154_324">
<rect width="46" height="61" fill="white"/>
</clipPath>
</defs>
</svg>
