<svg width="375" height="448" viewBox="0 0 375 448" fill="none" xmlns="http://www.w3.org/2000/svg">
<path d="M3.6 441V405.85H8.4L22.65 428.65H19.9L34.1 405.85H38.9V441H32.15V417.5L33.45 417.9L23.55 433.8H18.95L9.05 417.9L10.4 417.5V441H3.6ZM48.5805 441V405.85H55.3805V441H48.5805ZM53.5805 441V435H73.0305V441H53.5805ZM53.5805 425.95V420.15H71.2805V425.95H53.5805ZM53.5805 411.85V405.85H72.7805V411.85H53.5805ZM85.8086 441V434.95H94.7586C97.0253 434.95 99.0086 434.483 100.709 433.55C102.409 432.583 103.725 431.233 104.659 429.5C105.625 427.767 106.109 425.717 106.109 423.35C106.109 421.05 105.625 419.05 104.659 417.35C103.692 415.617 102.359 414.283 100.659 413.35C98.9586 412.383 96.9919 411.9 94.7586 411.9H85.6586V405.85H94.8586C97.4586 405.85 99.8586 406.283 102.059 407.15C104.292 408.017 106.225 409.25 107.859 410.85C109.525 412.417 110.809 414.267 111.709 416.4C112.642 418.533 113.109 420.867 113.109 423.4C113.109 425.933 112.642 428.283 111.709 430.45C110.809 432.583 109.542 434.45 107.909 436.05C106.275 437.617 104.342 438.833 102.109 439.7C99.9086 440.567 97.5253 441 94.9586 441H85.8086ZM81.1586 441V405.85H87.9586V441H81.1586ZM121.012 441V405.85H127.812V441H121.012ZM153.826 441.5C151.259 441.5 148.876 441.05 146.676 440.15C144.476 439.217 142.542 437.933 140.876 436.3C139.242 434.633 137.976 432.7 137.076 430.5C136.209 428.3 135.776 425.933 135.776 423.4C135.776 420.867 136.209 418.5 137.076 416.3C137.976 414.1 139.242 412.183 140.876 410.55C142.542 408.917 144.459 407.633 146.626 406.7C148.826 405.767 151.226 405.3 153.826 405.3C156.626 405.3 159.092 405.767 161.226 406.7C163.359 407.6 165.242 408.85 166.876 410.45L162.276 415.05C161.309 413.983 160.126 413.15 158.726 412.55C157.326 411.95 155.692 411.65 153.826 411.65C152.192 411.65 150.692 411.933 149.326 412.5C147.992 413.033 146.826 413.833 145.826 414.9C144.826 415.933 144.059 417.183 143.526 418.65C142.992 420.083 142.726 421.667 142.726 423.4C142.726 425.167 142.992 426.767 143.526 428.2C144.059 429.633 144.826 430.883 145.826 431.95C146.826 432.983 147.992 433.783 149.326 434.35C150.692 434.917 152.192 435.2 153.826 435.2C155.792 435.2 157.476 434.9 158.876 434.3C160.309 433.7 161.509 432.85 162.476 431.75L167.076 436.35C165.442 437.983 163.542 439.25 161.376 440.15C159.209 441.05 156.692 441.5 153.826 441.5ZM174.303 441V405.85H181.103V441H174.303ZM179.303 441V435H198.753V441H179.303ZM179.303 425.95V420.15H197.003V425.95H179.303ZM179.303 411.85V405.85H198.503V411.85H179.303ZM206.881 441V405.85H211.631L213.681 412.65V441H206.881ZM231.181 441L210.331 414L211.631 405.85L232.481 432.85L231.181 441ZM231.181 441L229.231 434.4V405.85H236.081V441H231.181ZM254.409 441V406.6H261.259V441H254.409ZM243.209 411.9V405.85H272.459V411.9H243.209ZM284.655 426.3V421H292.805C294.471 421 295.755 420.583 296.655 419.75C297.588 418.883 298.055 417.7 298.055 416.2C298.055 414.833 297.588 413.7 296.655 412.8C295.755 411.867 294.471 411.4 292.805 411.4H284.655V405.85H293.405C295.671 405.85 297.655 406.3 299.355 407.2C301.088 408.067 302.421 409.267 303.355 410.8C304.321 412.333 304.805 414.1 304.805 416.1C304.805 418.167 304.321 419.967 303.355 421.5C302.421 423 301.088 424.183 299.355 425.05C297.621 425.883 295.605 426.3 293.305 426.3H284.655ZM279.655 441V405.85H286.455V441H279.655ZM298.855 441L287.255 425.8L293.505 423.85L307.105 441H298.855ZM309.73 441L323.88 405.85H329.43L343.53 441H336.28L325.38 412.15H327.88L316.83 441H309.73ZM317.23 434.45V428.75H336.13V434.45H317.23ZM350.182 441V405.85H356.982V441H350.182ZM355.182 441V434.95H373.082V441H355.182Z" fill="#106A51"/>
<g clip-path="url(#clip0_154_170)">
<path d="M178.996 1.27922C246.692 -3.27799 304.426 49.3432 308.288 116.649C310.286 151.481 282.491 198.825 263.899 227.594C241.764 261.827 216.153 293.714 190.969 325.708C188.758 328.186 185.255 328.186 183.045 325.708C161.456 298.471 139.747 271.154 120.17 242.399C97.7421 209.459 63.3547 156.238 65.712 115.436C69.228 54.7665 118.572 5.33008 178.996 1.27922Z" fill="#106A51" stroke="#106A51" stroke-width="1.5" stroke-miterlimit="10"/>
<path d="M311.751 301.776C325.229 311.943 328.452 326.081 315.254 338.407C293.918 358.328 238.741 365.27 210.227 367.056C171.072 369.494 97.7821 365.204 64.6733 342.937C49.2775 332.583 44.2433 317.18 59.7456 303.814C73.1036 292.301 110.98 282.014 128.467 280.335C134.18 279.789 136.431 285.399 131.543 288.357C112.672 292.435 78.5507 297.232 64.2737 311.09C47.413 327.467 75.0614 340.139 87.8734 344.843C121.688 357.262 166.157 359.993 202.063 358.901C230.51 358.035 284.768 351.745 307.316 333.756C316.985 326.041 318.13 318.752 308.408 310.317C296.528 300.003 274.98 294.034 259.717 290.809C254.723 289.756 244.654 289.05 240.739 287.411C236.264 285.532 237.383 279.123 242.417 279.136C243.789 279.136 246.199 279.656 247.717 279.882C267.042 282.814 296.102 289.956 311.751 301.776Z" fill="#106A51" stroke="#106A51" stroke-width="5" stroke-miterlimit="10"/>
<path d="M271.89 100.525H215.541V44.1863H158.459V100.525H102.097V157.637H158.459V214.056H215.541V157.637H271.89V100.525Z" fill="#D6F1C4" stroke="#106A51" stroke-width="6" stroke-miterlimit="10"/>
</g>
<defs>
<clipPath id="clip0_154_170">
<rect width="280" height="371" fill="white" transform="translate(47)"/>
</clipPath>
</defs>
</svg>
